<svg width="400" height="400" viewBox="0 0 400 400" fill="none" xmlns="http://www.w3.org/2000/svg">
  <rect width="400" height="400" rx="80" fill="#000000"/>
  <rect x="2" y="2" width="396" height="396" rx="78" stroke="#10b981" stroke-width="4" stroke-opacity="0.3"/>
  <path d="M200 40 L220 160 L360 200 L220 230 L200 360 L180 230 L40 200 L180 160 Z" fill="url(#starGrad)"/>
  <path d="M200 160 L210 190 L240 200 L210 210 L200 240 L190 210 L160 200 L190 190 Z" fill="#000000"/>
  <path d="M200 40 L220 160 L360 200 L220 230 L200 360 L180 230 L40 200 L180 160 Z" fill="none" stroke="#6ee7b7" stroke-width="2"/>
  <defs>
    <linearGradient id="starGrad" x1="40" y1="40" x2="360" y2="360" gradientUnits="userSpaceOnUse">
      <stop stop-color="#34d399"/>
      <stop offset="0.5" stop-color="#10b981"/>
      <stop offset="1" stop-color="#059669"/>
    </linearGradient>
  </defs>
</svg>
